{
  "accessors": [
    {
      "bufferView": 2,
      "componentType": 5126,
      "count": 2673,
      "max": [
        16.94780921936035,
        23.155399322509766,
        8.445300102233887
      ],
      "min": [
        -17.125600814819336,
        -22.670299530029297,
        3.3947999477386475
      ],
      "type": "VEC3"
    },
    {
      "bufferView": 2,
      "byteOffset": 32076,
      "componentType": 5126,
      "count": 2673,
      "max": [
        1.0,
        0.993783712387085,
        1.0
      ],
      "min": [
        -1.0,
        -0.993783712387085,
        -1.0
      ],
      "type": "VEC3"
    },
    {
      "bufferView": 3,
      "componentType": 5126,
      "count": 2673,
      "max": [
        0.9999518990516663,
        1.0,
        1.0,
        1.0
      ],
      "min": [
        -0.8888309597969055,
        -1.0,
        -1.0,
        1.0
      ],
      "type": "VEC4"
    },
    {
      "bufferView": 1,
      "componentType": 5126,
      "count": 2673,
      "max": [
        0.9924845099449158,
        0.9950000047683716
      ],
      "min": [
        0.004999999888241291,
        0.004999999888241291
      ],
      "type": "VEC2"
    },
    {
      "bufferView": 0,
      "componentType": 5125,
      "count": 11307,
      "type": "SCALAR"
    }
  ],
  "asset": {
    "extras": {
      "author": "tinderboxh (https://sketchfab.com/tinderboxh)",
      "license": "CC-BY-4.0 (http://creativecommons.org/licenses/by/4.0/)",
      "source": "https://sketchfab.com/3d-models/notebook-material-e573304fce364cf299027494fc1afede",
      "title": "Notebook_Material"
    },
    "generator": "Sketchfab-12.66.0",
    "version": "2.0"
  },
  "bufferViews": [
    {
      "buffer": 0,
      "byteLength": 45228,
      "name": "floatBufferViews",
      "target": 34963
    },
    {
      "buffer": 0,
      "byteLength": 21384,
      "byteOffset": 45228,
      "byteStride": 8,
      "name": "floatBufferViews",
      "target": 34962
    },
    {
      "buffer": 0,
      "byteLength": 64152,
      "byteOffset": 66612,
      "byteStride": 12,
      "name": "floatBufferViews",
      "target": 34962
    },
    {
      "buffer": 0,
      "byteLength": 42768,
      "byteOffset": 130764,
      "byteStride": 16,
      "name": "floatBufferViews",
      "target": 34962
    }
  ],
  "buffers": [
    {
      "byteLength": 173532,
      "uri": "scene.bin"
    }
  ],
  "images": [
    {
      "uri": "textures/wire_176026026_baseColor.jpeg"
    },
    {
      "uri": "textures/wire_176026026_metallicRoughness.png"
    },
    {
      "uri": "textures/wire_176026026_normal.png"
    }
  ],
  "materials": [
    {
      "doubleSided": true,
      "name": "wire_176026026",
      "normalTexture": {
        "index": 2
      },
      "occlusionTexture": {
        "index": 1
      },
      "pbrMetallicRoughness": {
        "baseColorTexture": {
          "index": 0
        },
        "metallicRoughnessTexture": {
          "index": 1
        }
      }
    }
  ],
  "meshes": [
    {
      "name": "Note_wire_176026026_0",
      "primitives": [
        {
          "attributes": {
            "NORMAL": 1,
            "POSITION": 0,
            "TANGENT": 2,
            "TEXCOORD_0": 3
          },
          "indices": 4,
          "material": 0,
          "mode": 4
        }
      ]
    }
  ],
  "nodes": [
    {
      "children": [
        1
      ],
      "matrix": [
        1.0,
        -1.60812262295773e-16,
        2.8327693431939985e-16,
        0.0,
        -1.6081226229577292e-16,
        -1.0,
        -6.661338147750939e-16,
        0.0,
        2.832769343193999e-16,
        6.661338147750939e-16,
        -1.0,
        0.0,
        1.0755285551056204e-16,
        -0.4722300171852111,
        -0.36350008845329296,
        1.0
      ],
      "name": "Sketchfab_model"
    },
    {
      "children": [
        2
      ],
      "matrix": [
        1.0,
        0.0,
        0.0,
        0.0,
        0.0,
        -1.0,
        0.0,
        0.0,
        0.0,
        0.0,
        -1.0,
        0.0,
        0.0,
        0.0,
        0.0,
        1.0
      ],
      "name": "5d3037d1f10f4fa5a49ee32d2eacfb18.fbx"
    },
    {
      "children": [
        3
      ],
      "name": "RootNode"
    },
    {
      "children": [
        4
      ],
      "matrix": [
        0.2241699993610382,
        0.0,
        0.0,
        0.0,
        0.0,
        0.2241699993610382,
        0.0,
        0.0,
        0.0,
        0.0,
        0.2241699993610382,
        0.0,
        0.0,
        0.0,
        0.0,
        1.0
      ],
      "name": "Note"
    },
    {
      "children": [
        5
      ],
      "matrix": [
        1.0,
        0.0,
        -0.0,
        0.0,
        0.0,
        1.0,
        0.0,
        0.0,
        0.0,
        0.0,
        1.0,
        0.0,
        0.0,
        1.772934155042094e-07,
        -4.056000232696533,
        1.0
      ],
      "name": "Object_4"
    },
    {
      "mesh": 0,
      "name": "Note_wire_176026026_0"
    }
  ],
  "samplers": [
    {
      "magFilter": 9729,
      "minFilter": 9987,
      "wrapS": 10497,
      "wrapT": 10497
    }
  ],
  "scene": 0,
  "scenes": [
    {
      "name": "Sketchfab_Scene",
      "nodes": [
        0
      ]
    }
  ],
  "textures": [
    {
      "sampler": 0,
      "source": 0
    },
    {
      "sampler": 0,
      "source": 1
    },
    {
      "sampler": 0,
      "source": 2
    }
  ]
}
