{
	"asset":{
		"generator":"Khronos glTF Blender I/O v4.5.47",
		"version":"2.0"
	},
	"extensionsUsed":[
		"KHR_materials_transmission"
	],
	"scene":0,
	"scenes":[
		{
			"name":"Scene",
			"nodes":[
				7
			]
		}
	],
	"nodes":[
		{
			"mesh":0,
			"name":"proxy_Radio_radio_0"
		},
		{
			"children":[
				0
			],
			"name":"proxy_Radio"
		},
		{
			"mesh":1,
			"name":"Radio1_Glass_mat_0"
		},
		{
			"mesh":2,
			"name":"Radio1_Radio_mat_0"
		},
		{
			"children":[
				1,
				2,
				3
			],
			"name":"Radio1",
			"scale":[
				0.061071526259183884,
				0.061071526259183884,
				0.061071526259183884
			],
			"translation":[
				0,
				0.0015749458689242601,
				-0.04503288120031357
			]
		},
		{
			"children":[
				4
			],
			"name":"RootNode"
		},
		{
			"children":[
				5
			],
			"name":"88b1c0c1ec674975becf446ec999b94f.fbx",
			"rotation":[
				0.70710688829422,
				0,
				0,
				0.7071066498756409
			]
		},
		{
			"children":[
				6
			],
			"name":"Sketchfab_model",
			"rotation":[
				-0.70710688829422,
				0,
				0,
				0.7071066498756409
			]
		}
	],
	"materials":[
		{
			"alphaMode":"MASK",
			"doubleSided":true,
			"name":"radio.002",
			"pbrMetallicRoughness":{
				"baseColorFactor":[
					1,
					1,
					1,
					0
				],
				"baseColorTexture":{
					"index":0
				},
				"metallicRoughnessTexture":{
					"index":1
				},
				"roughnessFactor":0.6000000238418579
			}
		},
		{
			"alphaMode":"BLEND",
			"doubleSided":true,
			"extensions":{
				"KHR_materials_transmission":{
					"transmissionFactor":1,
					"transmissionTexture":{
						"index":2
					}
				}
			},
			"name":"Glass_mat.002",
			"normalTexture":{
				"index":3
			},
			"pbrMetallicRoughness":{
				"baseColorTexture":{
					"index":4
				},
				"metallicRoughnessTexture":{
					"index":5
				}
			}
		},
		{
			"doubleSided":true,
			"name":"Radio_mat.002",
			"normalTexture":{
				"index":6
			},
			"pbrMetallicRoughness":{
				"baseColorTexture":{
					"index":7
				},
				"metallicRoughnessTexture":{
					"index":8
				}
			}
		}
	],
	"meshes":[
		{
			"name":"proxy_Radio_radio_0.002",
			"primitives":[
				{
					"attributes":{
						"POSITION":0,
						"NORMAL":1,
						"TEXCOORD_0":2
					},
					"indices":3,
					"material":0
				}
			]
		},
		{
			"name":"Radio1_Glass_mat_0.002",
			"primitives":[
				{
					"attributes":{
						"POSITION":4,
						"NORMAL":5,
						"TEXCOORD_0":6
					},
					"indices":7,
					"material":1
				}
			]
		},
		{
			"name":"Radio1_Radio_mat_0.002",
			"primitives":[
				{
					"attributes":{
						"POSITION":8,
						"NORMAL":9,
						"TEXCOORD_0":10
					},
					"indices":11,
					"material":2
				}
			]
		}
	],
	"textures":[
		{
			"sampler":0,
			"source":0
		},
		{
			"sampler":0,
			"source":1
		},
		{
			"sampler":0,
			"source":2
		},
		{
			"sampler":0,
			"source":3
		},
		{
			"sampler":0,
			"source":4
		},
		{
			"sampler":0,
			"source":5
		},
		{
			"sampler":0,
			"source":6
		},
		{
			"sampler":0,
			"source":0
		},
		{
			"sampler":0,
			"source":7
		}
	],
	"images":[
		{
			"mimeType":"image/png",
			"name":"Radio_mat_baseColor",
			"uri":"Radio_mat_baseColor.png"
		},
		{
			"mimeType":"image/png",
			"name":"radio_metallicRoughness",
			"uri":"radio_metallicRoughness.png"
		},
		{
			"mimeType":"image/png",
			"name":"Glass_mat_transmission",
			"uri":"Glass_mat_transmission.png"
		},
		{
			"mimeType":"image/png",
			"name":"Glass_mat_normal",
			"uri":"Glass_mat_normal.png"
		},
		{
			"mimeType":"image/png",
			"name":"Glass_mat_baseColor",
			"uri":"Glass_mat_baseColor.png"
		},
		{
			"mimeType":"image/png",
			"name":"Glass_mat_metallicRoughness",
			"uri":"Glass_mat_metallicRoughness.png"
		},
		{
			"mimeType":"image/png",
			"name":"Radio_mat_normal",
			"uri":"Radio_mat_normal.png"
		},
		{
			"mimeType":"image/png",
			"name":"Radio_mat_metallicRoughness",
			"uri":"Radio_mat_metallicRoughness.png"
		}
	],
	"accessors":[
		{
			"bufferView":0,
			"componentType":5126,
			"count":211,
			"max":[
				2.428917407989502,
				3.5976016521453857,
				1.7355773448944092
			],
			"min":[
				-2.4570510387420654,
				-0.026596128940582275,
				-0.028481125831604004
			],
			"type":"VEC3"
		},
		{
			"bufferView":1,
			"componentType":5126,
			"count":211,
			"type":"VEC3"
		},
		{
			"bufferView":2,
			"componentType":5126,
			"count":211,
			"type":"VEC2"
		},
		{
			"bufferView":3,
			"componentType":5123,
			"count":816,
			"type":"SCALAR"
		},
		{
			"bufferView":4,
			"componentType":5126,
			"count":4,
			"max":[
				2.0281338691711426,
				2.7194578647613525,
				1.45695161819458
			],
			"min":[
				-0.9314782619476318,
				2.548414945602417,
				1.45695161819458
			],
			"type":"VEC3"
		},
		{
			"bufferView":5,
			"componentType":5126,
			"count":4,
			"type":"VEC3"
		},
		{
			"bufferView":6,
			"componentType":5126,
			"count":4,
			"type":"VEC2"
		},
		{
			"bufferView":7,
			"componentType":5123,
			"count":6,
			"type":"SCALAR"
		},
		{
			"bufferView":8,
			"componentType":5126,
			"count":2118,
			"max":[
				2.4148268699645996,
				3.583786964416504,
				1.6662037372589111
			],
			"min":[
				-2.4209468364715576,
				-0.015957176685333252,
				0
			],
			"type":"VEC3"
		},
		{
			"bufferView":9,
			"componentType":5126,
			"count":2118,
			"type":"VEC3"
		},
		{
			"bufferView":10,
			"componentType":5126,
			"count":2118,
			"type":"VEC2"
		},
		{
			"bufferView":11,
			"componentType":5123,
			"count":8496,
			"type":"SCALAR"
		}
	],
	"bufferViews":[
		{
			"buffer":0,
			"byteLength":2532,
			"byteOffset":0,
			"target":34962
		},
		{
			"buffer":0,
			"byteLength":2532,
			"byteOffset":2532,
			"target":34962
		},
		{
			"buffer":0,
			"byteLength":1688,
			"byteOffset":5064,
			"target":34962
		},
		{
			"buffer":0,
			"byteLength":1632,
			"byteOffset":6752,
			"target":34963
		},
		{
			"buffer":0,
			"byteLength":48,
			"byteOffset":8384,
			"target":34962
		},
		{
			"buffer":0,
			"byteLength":48,
			"byteOffset":8432,
			"target":34962
		},
		{
			"buffer":0,
			"byteLength":32,
			"byteOffset":8480,
			"target":34962
		},
		{
			"buffer":0,
			"byteLength":12,
			"byteOffset":8512,
			"target":34963
		},
		{
			"buffer":0,
			"byteLength":25416,
			"byteOffset":8524,
			"target":34962
		},
		{
			"buffer":0,
			"byteLength":25416,
			"byteOffset":33940,
			"target":34962
		},
		{
			"buffer":0,
			"byteLength":16944,
			"byteOffset":59356,
			"target":34962
		},
		{
			"buffer":0,
			"byteLength":16992,
			"byteOffset":76300,
			"target":34963
		}
	],
	"samplers":[
		{
			"magFilter":9729,
			"minFilter":9987
		}
	],
	"buffers":[
		{
			"byteLength":93292,
			"uri":"scene.bin"
		}
	]
}
